<svg width="24" height="24" viewBox="0 0 24 24" fill="none" xmlns="http://www.w3.org/2000/svg">
<path fill-rule="evenodd" clip-rule="evenodd" d="M10.1281 4.80664C10.8004 4.52891 11.5209 4.38596 12.2486 4.38596C12.9763 4.38596 13.6968 4.52891 14.3691 4.80664C15.0414 5.08437 15.6523 5.49145 16.1668 6.00464C16.6814 6.51782 17.0896 7.12706 17.368 7.79757C17.6465 8.46808 17.7898 9.18672 17.7898 9.91247C17.7898 13.111 18.4623 15.0373 19.1076 16.1493H15.0435C15.0386 16.1492 15.0337 16.1491 15.0288 16.1491C15.0239 16.1491 15.019 16.1492 15.0141 16.1493H9.48494C9.48005 16.1492 9.47514 16.1491 9.47022 16.1491C9.46529 16.1491 9.46039 16.1492 9.45549 16.1493H5.38965C6.03493 15.0373 6.70737 13.111 6.70737 9.91247C6.70737 9.18672 6.8507 8.46807 7.12917 7.79757C7.40764 7.12706 7.81581 6.51782 8.33036 6.00464C8.84491 5.49145 9.45577 5.08437 10.1281 4.80664ZM8.77539 17.5352H5.3872L5.38476 17.5352C5.14124 17.5344 4.90222 17.4697 4.69165 17.3477C4.48107 17.2257 4.30634 17.0507 4.18495 16.8402C4.06357 16.6296 3.99979 16.3909 4 16.1481C4.00022 15.9052 4.06442 15.6666 4.18618 15.4563L4.1866 15.4556C4.68765 14.5924 5.31772 12.9154 5.31772 9.91247C5.31772 9.00471 5.49699 8.10584 5.8453 7.26718C6.19361 6.42852 6.70414 5.6665 7.34773 5.02462C7.99132 4.38273 8.75537 3.87356 9.59627 3.52618C10.4372 3.1788 11.3384 3 12.2486 3C13.1588 3 14.06 3.1788 14.9009 3.52618C15.7418 3.87356 16.5059 4.38273 17.1495 5.02462C17.7931 5.6665 18.3036 6.42852 18.6519 7.26718C19.0002 8.10584 19.1795 9.00471 19.1795 9.91247C19.1795 12.9154 19.8095 14.5924 20.3106 15.4556L20.311 15.4563C20.4328 15.6666 20.497 15.9052 20.4972 16.1481C20.4974 16.3909 20.4336 16.6296 20.3122 16.8402C20.1909 17.0507 20.0161 17.2257 19.8056 17.3477C19.595 17.4697 19.356 17.5344 19.1124 17.5352L19.11 17.5352H15.7236C15.7236 18.4541 15.3576 19.3354 14.7061 19.9852C14.0546 20.6349 13.1709 21 12.2495 21C11.3281 21 10.4445 20.6349 9.79294 19.9852C9.14145 19.3354 8.77543 18.4541 8.77539 17.5352ZM10.165 17.5352C10.1651 18.0866 10.3847 18.6153 10.7756 19.0051C11.1665 19.395 11.6967 19.614 12.2495 19.614C12.8024 19.614 13.3325 19.395 13.7235 19.0051C14.1143 18.6153 14.334 18.0866 14.334 17.5352H10.165Z" fill="#000"/>
</svg>
