<svg width="24" height="24" viewBox="0 0 24 24" fill="none" xmlns="http://www.w3.org/2000/svg">
<path d="M22 6H2V18.0182H22V6Z" fill="#003399"/>
<path fill-rule="evenodd" clip-rule="evenodd" d="M12.2456 8.55685L12.3682 8.9585L12.0196 8.71177L11.6629 8.95596L11.7995 8.55579L11.4332 8.298H11.8879L12.0325 7.87427L12.1644 8.298H12.6176L12.2456 8.55685ZM10.8048 8.76854L10.4326 9.02729L10.5553 9.42903L10.2068 9.18222L9.84993 9.42649L9.98661 9.02636L9.62038 8.76854H10.075L10.2196 8.34479L10.3515 8.76854H10.8048ZM14.1206 9.42903L13.998 9.02729L14.3702 8.76854H13.9167L13.7849 8.34479L13.6404 8.76854H13.1857L13.552 9.02636L13.4153 9.42649L13.7721 9.18222L14.1206 9.42903ZM15.6734 10.0557L15.3011 10.3145L15.424 10.7161L15.0753 10.4693L14.7187 10.7136L14.8551 10.3135L14.489 10.0557H14.9435L15.0881 9.63197L15.2202 10.0557H15.6734ZM15.919 12.546L15.7962 12.1443L16.1685 11.8855H15.7154L15.5832 11.4618L15.4387 11.8855H14.9844L15.3503 12.1433L15.2139 12.5434L15.5706 12.2991L15.919 12.546ZM15.3171 13.9277L15.4399 14.3294L15.0912 14.0826L14.7345 14.3269L14.871 13.9269L14.505 13.669H14.9594L15.1041 13.2451L15.2361 13.669H15.6892L15.3171 13.9277ZM14.0297 15.2615L14.4019 15.0028H13.9487L13.8168 14.5789L13.6721 15.0028H13.2177L13.5838 15.2604L13.4472 15.6607L13.804 15.4164L14.1526 15.6632L14.0297 15.2615ZM12.6176 15.4834L12.2456 15.7421L12.3682 16.1438L12.0196 15.8969L11.6629 16.1412L11.7995 15.7412L11.4332 15.4834H11.8879L12.0325 15.0595L12.1644 15.4834H12.6176ZM10.4165 15.2615L10.7887 15.0028H10.3354L10.2035 14.5789L10.0589 15.0028H9.6044L9.97058 15.2604L9.83387 15.6607L10.1908 15.4164L10.5393 15.6632L10.4165 15.2615ZM9.51748 13.669L9.14522 13.9277L9.26807 14.3294L8.91949 14.0826L8.56263 14.3269L8.69935 13.9269L8.3331 13.669H8.78769L8.9323 13.2451L9.06415 13.669H9.51748ZM8.77091 12.546L8.64806 12.1443L9.02031 11.8855H8.56702L8.43513 11.4618L8.29052 11.8855H7.83594L8.20212 12.1433L8.06549 12.5434L8.42232 12.2991L8.77091 12.546ZM9.15951 10.3145L9.28226 10.7161L8.93368 10.4693L8.57686 10.7136L8.71347 10.3135L8.3473 10.0557H8.80188L8.94651 9.63197L9.07838 10.0557H9.53162L9.15951 10.3145Z" fill="#FCC901"/>
</svg>
