<svg width="24" height="24" viewBox="0 0 24 24" fill="none" xmlns="http://www.w3.org/2000/svg">
<path d="M22 6H2V18.0182H22V6Z" fill="#EEEEEE"/>
<path fill-rule="evenodd" clip-rule="evenodd" d="M22.0005 6.9244H10.0098V6H22.0005V6.9244Z" fill="#BE2033"/>
<path fill-rule="evenodd" clip-rule="evenodd" d="M22.0005 8.74155H10.0098V7.81714H22.0005V8.74155Z" fill="#BE2033"/>
<path fill-rule="evenodd" clip-rule="evenodd" d="M22.0005 10.5638H10.0098V9.6394H22.0005V10.5638Z" fill="#BE2033"/>
<path fill-rule="evenodd" clip-rule="evenodd" d="M22.0005 12.3545H10.0098V11.4301H22.0005V12.3545Z" fill="#BE2033"/>
<path fill-rule="evenodd" clip-rule="evenodd" d="M22 14.1452H2V13.2207H22V14.1452Z" fill="#BE2033"/>
<path fill-rule="evenodd" clip-rule="evenodd" d="M22 16.0627H2V15.1383H22V16.0627Z" fill="#BE2033"/>
<path fill-rule="evenodd" clip-rule="evenodd" d="M22 18.0182H2V17.0939H22V18.0182Z" fill="#BE2033"/>
<path fill-rule="evenodd" clip-rule="evenodd" d="M11.1902 12.3547H2V6H11.1902V12.3547Z" fill="#212F64"/>
<path fill-rule="evenodd" clip-rule="evenodd" d="M2.41602 6.53798H2.68363L2.78169 6.25708L2.89033 6.53798H3.15536L2.95393 6.72214L3.02815 7.00171L2.78568 6.84536L2.55911 7.00171L2.62533 6.72214L2.41602 6.53798Z" fill="white"/>
<path fill-rule="evenodd" clip-rule="evenodd" d="M3.91992 6.53798H4.18758L4.28561 6.25708L4.39427 6.53798H4.65927L4.45788 6.72214L4.53208 7.00171L4.28958 6.84536L4.06301 7.00171L4.12924 6.72214L3.91992 6.53798Z" fill="white"/>
<path fill-rule="evenodd" clip-rule="evenodd" d="M5.47852 6.53798H5.7462L5.84423 6.25708L5.95286 6.53798H6.21788L6.01647 6.72214L6.09066 7.00171L5.8482 6.84536L5.62163 7.00171L5.68789 6.72214L5.47852 6.53798Z" fill="white"/>
<path fill-rule="evenodd" clip-rule="evenodd" d="M6.98438 6.53798H7.25203L7.35005 6.25708L7.45872 6.53798H7.72367L7.52233 6.72214L7.59647 7.00171L7.35402 6.84536L7.12746 7.00171L7.19372 6.72214L6.98438 6.53798Z" fill="white"/>
<path fill-rule="evenodd" clip-rule="evenodd" d="M8.5 6.53798H8.76766L8.86573 6.25708L8.97435 6.53798H9.2394L9.03796 6.72214L9.11216 7.00171L8.8697 6.84536L8.64311 7.00171L8.70932 6.72214L8.5 6.53798Z" fill="white"/>
<path fill-rule="evenodd" clip-rule="evenodd" d="M10.0488 6.53798H10.3164L10.4145 6.25708L10.5232 6.53798H10.7882L10.5867 6.72214L10.661 7.00171L10.4185 6.84536L10.1919 7.00171L10.2582 6.72214L10.0488 6.53798Z" fill="white"/>
<path fill-rule="evenodd" clip-rule="evenodd" d="M3.16992 7.2084H3.43755L3.53562 6.92749L3.64424 7.2084H3.90928L3.70786 7.39257L3.78208 7.67216L3.5396 7.51582L3.31301 7.67216L3.37924 7.39257L3.16992 7.2084Z" fill="white"/>
<path fill-rule="evenodd" clip-rule="evenodd" d="M4.67383 7.2084H4.94143L5.03951 6.92749L5.14814 7.2084H5.41315L5.21174 7.39257L5.28596 7.67216L5.04349 7.51582L4.81691 7.67216L4.88314 7.39257L4.67383 7.2084Z" fill="white"/>
<path fill-rule="evenodd" clip-rule="evenodd" d="M6.23242 7.2084H6.50006L6.59814 6.92749L6.70676 7.2084H6.97178L6.77035 7.39257L6.84457 7.67216L6.60208 7.51582L6.37552 7.67216L6.44173 7.39257L6.23242 7.2084Z" fill="white"/>
<path fill-rule="evenodd" clip-rule="evenodd" d="M7.73828 7.2084H8.00594L8.10401 6.92749L8.21262 7.2084H8.47763L8.27624 7.39257L8.35043 7.67216L8.10798 7.51582L7.88139 7.67216L7.94767 7.39257L7.73828 7.2084Z" fill="white"/>
<path fill-rule="evenodd" clip-rule="evenodd" d="M9.25195 7.2084H9.51954L9.61762 6.92749L9.72624 7.2084H9.99125L9.78987 7.39257L9.86406 7.67216L9.6216 7.51582L9.39501 7.67216L9.46128 7.39257L9.25195 7.2084Z" fill="white"/>
<path fill-rule="evenodd" clip-rule="evenodd" d="M2.41602 7.79937H2.68363L2.78169 7.51843L2.89033 7.79937H3.15536L2.95393 7.98352L3.02815 8.26308L2.78568 8.10674L2.55911 8.26308L2.62533 7.98352L2.41602 7.79937Z" fill="white"/>
<path fill-rule="evenodd" clip-rule="evenodd" d="M3.91992 7.79937H4.18758L4.28561 7.51843L4.39427 7.79937H4.65927L4.45788 7.98352L4.53208 8.26308L4.28958 8.10674L4.06301 8.26308L4.12924 7.98352L3.91992 7.79937Z" fill="white"/>
<path fill-rule="evenodd" clip-rule="evenodd" d="M5.47852 7.79937H5.7462L5.84423 7.51843L5.95286 7.79937H6.21788L6.01647 7.98352L6.09066 8.26308L5.8482 8.10674L5.62163 8.26308L5.68789 7.98352L5.47852 7.79937Z" fill="white"/>
<path fill-rule="evenodd" clip-rule="evenodd" d="M6.98438 7.79937H7.25203L7.35005 7.51843L7.45872 7.79937H7.72367L7.52233 7.98352L7.59647 8.26308L7.35402 8.10674L7.12746 8.26308L7.19372 7.98352L6.98438 7.79937Z" fill="white"/>
<path fill-rule="evenodd" clip-rule="evenodd" d="M8.5 7.79937H8.76766L8.86573 7.51843L8.97435 7.79937H9.2394L9.03796 7.98352L9.11216 8.26308L8.8697 8.10674L8.64311 8.26308L8.70932 7.98352L8.5 7.79937Z" fill="white"/>
<path fill-rule="evenodd" clip-rule="evenodd" d="M10.0488 7.79937H10.3164L10.4145 7.51843L10.5232 7.79937H10.7882L10.5867 7.98352L10.661 8.26308L10.4185 8.10674L10.1919 8.26308L10.2582 7.98352L10.0488 7.79937Z" fill="white"/>
<path fill-rule="evenodd" clip-rule="evenodd" d="M3.16992 8.46975H3.43755L3.53562 8.18884L3.64424 8.46975H3.90928L3.70786 8.65391L3.78208 8.93348L3.5396 8.77715L3.31301 8.93348L3.37924 8.65391L3.16992 8.46975Z" fill="white"/>
<path fill-rule="evenodd" clip-rule="evenodd" d="M4.67383 8.46975H4.94143L5.03951 8.18884L5.14814 8.46975H5.41315L5.21174 8.65391L5.28596 8.93348L5.04349 8.77715L4.81691 8.93348L4.88314 8.65391L4.67383 8.46975Z" fill="white"/>
<path fill-rule="evenodd" clip-rule="evenodd" d="M6.23242 8.46975H6.50006L6.59814 8.18884L6.70676 8.46975H6.97178L6.77035 8.65391L6.84457 8.93348L6.60208 8.77715L6.37552 8.93348L6.44173 8.65391L6.23242 8.46975Z" fill="white"/>
<path fill-rule="evenodd" clip-rule="evenodd" d="M7.73828 8.46975H8.00594L8.10401 8.18884L8.21262 8.46975H8.47763L8.27624 8.65391L8.35043 8.93348L8.10798 8.77715L7.88139 8.93348L7.94767 8.65391L7.73828 8.46975Z" fill="white"/>
<path fill-rule="evenodd" clip-rule="evenodd" d="M9.25195 8.46975H9.51954L9.61762 8.18884L9.72624 8.46975H9.99125L9.78987 8.65391L9.86406 8.93348L9.6216 8.77715L9.39501 8.93348L9.46128 8.65391L9.25195 8.46975Z" fill="white"/>
<path fill-rule="evenodd" clip-rule="evenodd" d="M2.41602 9.08207H2.68363L2.78169 8.80115L2.89033 9.08207H3.15536L2.95393 9.26622L3.02815 9.54578L2.78568 9.38944L2.55911 9.54578L2.62533 9.26622L2.41602 9.08207Z" fill="white"/>
<path fill-rule="evenodd" clip-rule="evenodd" d="M3.91992 9.08207H4.18758L4.28561 8.80115L4.39427 9.08207H4.65927L4.45788 9.26622L4.53208 9.54578L4.28958 9.38944L4.06301 9.54578L4.12924 9.26622L3.91992 9.08207Z" fill="white"/>
<path fill-rule="evenodd" clip-rule="evenodd" d="M5.47852 9.08207H5.7462L5.84423 8.80115L5.95286 9.08207H6.21788L6.01647 9.26622L6.09066 9.54578L5.8482 9.38944L5.62163 9.54578L5.68789 9.26622L5.47852 9.08207Z" fill="white"/>
<path fill-rule="evenodd" clip-rule="evenodd" d="M6.98438 9.08207H7.25203L7.35005 8.80115L7.45872 9.08207H7.72367L7.52233 9.26622L7.59647 9.54578L7.35402 9.38944L7.12746 9.54578L7.19372 9.26622L6.98438 9.08207Z" fill="white"/>
<path fill-rule="evenodd" clip-rule="evenodd" d="M8.5 9.08207H8.76766L8.86573 8.80115L8.97435 9.08207H9.2394L9.03796 9.26622L9.11216 9.54578L8.8697 9.38944L8.64311 9.54578L8.70932 9.26622L8.5 9.08207Z" fill="white"/>
<path fill-rule="evenodd" clip-rule="evenodd" d="M10.0488 9.08207H10.3164L10.4145 8.80115L10.5232 9.08207H10.7882L10.5867 9.26622L10.661 9.54578L10.4185 9.38944L10.1919 9.54578L10.2582 9.26622L10.0488 9.08207Z" fill="white"/>
<path fill-rule="evenodd" clip-rule="evenodd" d="M3.16992 9.75247H3.43755L3.53562 9.47156L3.64424 9.75247H3.90928L3.70786 9.93663L3.78208 10.2162L3.5396 10.0599L3.31301 10.2162L3.37924 9.93663L3.16992 9.75247Z" fill="white"/>
<path fill-rule="evenodd" clip-rule="evenodd" d="M4.67383 9.75247H4.94143L5.03951 9.47156L5.14814 9.75247H5.41315L5.21174 9.93663L5.28596 10.2162L5.04349 10.0599L4.81691 10.2162L4.88314 9.93663L4.67383 9.75247Z" fill="white"/>
<path fill-rule="evenodd" clip-rule="evenodd" d="M6.23242 9.75247H6.50006L6.59814 9.47156L6.70676 9.75247H6.97178L6.77035 9.93663L6.84457 10.2162L6.60208 10.0599L6.37552 10.2162L6.44173 9.93663L6.23242 9.75247Z" fill="white"/>
<path fill-rule="evenodd" clip-rule="evenodd" d="M7.73828 9.75247H8.00594L8.10401 9.47156L8.21262 9.75247H8.47763L8.27624 9.93663L8.35043 10.2162L8.10798 10.0599L7.88139 10.2162L7.94767 9.93663L7.73828 9.75247Z" fill="white"/>
<path fill-rule="evenodd" clip-rule="evenodd" d="M9.25195 9.75247H9.51954L9.61762 9.47156L9.72624 9.75247H9.99125L9.78987 9.93663L9.86406 10.2162L9.6216 10.0599L9.39501 10.2162L9.46128 9.93663L9.25195 9.75247Z" fill="white"/>
<path fill-rule="evenodd" clip-rule="evenodd" d="M2.41602 10.346H2.68363L2.78169 10.0651L2.89033 10.346H3.15536L2.95393 10.5301L3.02815 10.8097L2.78568 10.6534L2.55911 10.8097L2.62533 10.5301L2.41602 10.346Z" fill="white"/>
<path fill-rule="evenodd" clip-rule="evenodd" d="M3.91992 10.346H4.18758L4.28561 10.0651L4.39427 10.346H4.65927L4.45788 10.5301L4.53208 10.8097L4.28958 10.6534L4.06301 10.8097L4.12924 10.5301L3.91992 10.346Z" fill="white"/>
<path fill-rule="evenodd" clip-rule="evenodd" d="M5.47852 10.346H5.7462L5.84423 10.0651L5.95286 10.346H6.21788L6.01647 10.5301L6.09066 10.8097L5.8482 10.6534L5.62163 10.8097L5.68789 10.5301L5.47852 10.346Z" fill="white"/>
<path fill-rule="evenodd" clip-rule="evenodd" d="M6.98438 10.346H7.25203L7.35005 10.0651L7.45872 10.346H7.72367L7.52233 10.5301L7.59647 10.8097L7.35402 10.6534L7.12746 10.8097L7.19372 10.5301L6.98438 10.346Z" fill="white"/>
<path fill-rule="evenodd" clip-rule="evenodd" d="M8.5 10.346H8.76766L8.86573 10.0651L8.97435 10.346H9.2394L9.03796 10.5301L9.11216 10.8097L8.8697 10.6534L8.64311 10.8097L8.70932 10.5301L8.5 10.346Z" fill="white"/>
<path fill-rule="evenodd" clip-rule="evenodd" d="M10.0488 10.346H10.3164L10.4145 10.0651L10.5232 10.346H10.7882L10.5867 10.5301L10.661 10.8097L10.4185 10.6534L10.1919 10.8097L10.2582 10.5301L10.0488 10.346Z" fill="white"/>
<path fill-rule="evenodd" clip-rule="evenodd" d="M2.41602 11.5967H2.68363L2.78169 11.3159L2.89033 11.5967H3.15536L2.95393 11.781L3.02815 12.0605L2.78568 11.9042L2.55911 12.0605L2.62533 11.781L2.41602 11.5967Z" fill="white"/>
<path fill-rule="evenodd" clip-rule="evenodd" d="M3.91992 11.5967H4.18758L4.28561 11.3159L4.39427 11.5967H4.65927L4.45788 11.781L4.53208 12.0605L4.28958 11.9042L4.06301 12.0605L4.12924 11.781L3.91992 11.5967Z" fill="white"/>
<path fill-rule="evenodd" clip-rule="evenodd" d="M5.47852 11.5967H5.7462L5.84423 11.3159L5.95286 11.5967H6.21788L6.01647 11.781L6.09066 12.0605L5.8482 11.9042L5.62163 12.0605L5.68789 11.781L5.47852 11.5967Z" fill="white"/>
<path fill-rule="evenodd" clip-rule="evenodd" d="M6.98438 11.5967H7.25203L7.35005 11.3159L7.45872 11.5967H7.72367L7.52233 11.781L7.59647 12.0605L7.35402 11.9042L7.12746 12.0605L7.19372 11.781L6.98438 11.5967Z" fill="white"/>
<path fill-rule="evenodd" clip-rule="evenodd" d="M8.5 11.5967H8.76766L8.86573 11.3159L8.97435 11.5967H9.2394L9.03796 11.781L9.11216 12.0605L8.8697 11.9042L8.64311 12.0605L8.70932 11.781L8.5 11.5967Z" fill="white"/>
<path fill-rule="evenodd" clip-rule="evenodd" d="M10.0488 11.5967H10.3164L10.4145 11.3159L10.5232 11.5967H10.7882L10.5867 11.781L10.661 12.0605L10.4185 11.9042L10.1919 12.0605L10.2582 11.781L10.0488 11.5967Z" fill="white"/>
<path fill-rule="evenodd" clip-rule="evenodd" d="M3.16992 11.0164H3.43755L3.53562 10.7355L3.64424 11.0164H3.90928L3.70786 11.2006L3.78208 11.4801L3.5396 11.3238L3.31301 11.4801L3.37924 11.2006L3.16992 11.0164Z" fill="white"/>
<path fill-rule="evenodd" clip-rule="evenodd" d="M4.67383 11.0164H4.94143L5.03951 10.7355L5.14814 11.0164H5.41315L5.21174 11.2006L5.28596 11.4801L5.04349 11.3238L4.81691 11.4801L4.88314 11.2006L4.67383 11.0164Z" fill="white"/>
<path fill-rule="evenodd" clip-rule="evenodd" d="M6.23242 11.0164H6.50006L6.59814 10.7355L6.70676 11.0164H6.97178L6.77035 11.2006L6.84457 11.4801L6.60208 11.3238L6.37552 11.4801L6.44173 11.2006L6.23242 11.0164Z" fill="white"/>
<path fill-rule="evenodd" clip-rule="evenodd" d="M7.73828 11.0164H8.00594L8.10401 10.7355L8.21262 11.0164H8.47763L8.27624 11.2006L8.35043 11.4801L8.10798 11.3238L7.88139 11.4801L7.94767 11.2006L7.73828 11.0164Z" fill="white"/>
<path fill-rule="evenodd" clip-rule="evenodd" d="M9.25195 11.0164H9.51954L9.61762 10.7355L9.72624 11.0164H9.99125L9.78987 11.2006L9.86406 11.4801L9.6216 11.3238L9.39501 11.4801L9.46128 11.2006L9.25195 11.0164Z" fill="white"/>
</svg>
